<?xml version="1.0" encoding="utf-8"?>
<!-- Generator: Adobe Illustrator 27.0.1, SVG Export Plug-In . SVG Version: 6.00 Build 0)  -->
<svg version="1.1" id="Layer_1" xmlns="http://www.w3.org/2000/svg" xmlns:xlink="http://www.w3.org/1999/xlink" x="0px" y="0px"
	 viewBox="0 0 60 60" style="enable-background:new 0 0 60 60;" xml:space="preserve">
<style type="text/css">
	.st0{fill:#0029A6;}
</style>
<g>
	<path class="st0" d="M59.95,38.32c-0.19,0.97-0.33,1.96-0.59,2.92c-1.99,7.12-8.63,11.9-16.07,11.6
		c-7.19-0.29-13.36-5.67-14.76-12.87c-1.75-9.01,4.76-17.77,13.89-18.67c8.52-0.84,16.06,5.02,17.38,13.52
		c0.05,0.31,0.1,0.61,0.15,0.92C59.95,36.6,59.95,37.46,59.95,38.32z M42.29,45.51c0,0.7-0.01,1.39,0,2.07
		c0.03,1,0.79,1.76,1.74,1.76c0.96,0,1.72-0.75,1.76-1.75c0.02-0.47,0.03-0.94,0-1.4c-0.04-0.47,0.12-0.7,0.55-0.92
		c1.85-0.92,2.86-2.46,2.94-4.51c0.08-2.11-0.83-3.78-2.69-4.77c-0.76-0.41-1.69-0.54-2.56-0.69c-0.76-0.13-1.33-0.43-1.62-1.15
		c-0.27-0.66-0.14-1.28,0.33-1.8c0.52-0.58,1.2-0.75,1.91-0.46c0.44,0.18,0.86,0.46,1.23,0.76c0.86,0.69,1.89,0.69,2.56-0.05
		c0.69-0.76,0.62-1.87-0.26-2.58c-0.72-0.58-1.54-1.03-2.4-1.59c0-0.53,0.01-1.19,0-1.85c-0.02-1.05-0.75-1.82-1.73-1.83
		c-1-0.01-1.76,0.77-1.77,1.85c-0.01,0.66,0,1.32,0,1.96c-3.47,1.47-4.6,5.4-2.38,8.22c1.05,1.34,2.46,1.99,4.16,2.03
		c0.75,0.02,1.3,0.4,1.59,1.09c0.29,0.68,0.15,1.31-0.34,1.85c-0.51,0.55-1.19,0.77-1.86,0.44c-0.6-0.29-1.16-0.71-1.64-1.16
		c-0.81-0.76-1.81-0.89-2.56-0.21c-0.77,0.69-0.78,1.75-0.03,2.6C40.07,44.36,41.08,45.06,42.29,45.51z"/>
	<path class="st0" d="M21.24,60c0-15.29,0-30.58,0-45.94c-0.25,0-0.46,0-0.66,0c-1.52,0-3.04,0.01-4.56,0
		c-0.8-0.01-1.41-0.44-1.67-1.14c-0.26-0.7-0.1-1.43,0.52-1.96c4.06-3.5,8.14-6.99,12.21-10.48c0.22-0.19,0.48-0.32,0.72-0.47
		c0.31,0,0.62,0,0.94,0c0.67,0.52,1.36,1.02,2.01,1.58c3.6,3.08,7.19,6.17,10.79,9.26c0.72,0.62,0.93,1.33,0.66,2.08
		c-0.28,0.75-0.91,1.15-1.84,1.15c-1.66,0-3.31,0-5.06,0c0,0.23,0,0.43,0,0.64c0,1.54-0.01,3.08,0.01,4.63
		c0,0.35-0.09,0.55-0.41,0.73c-6.8,3.98-10.36,9.91-10.06,17.81c0.27,7.16,3.82,12.5,9.99,16.1c0.35,0.2,0.5,0.39,0.49,0.81
		c-0.03,0.96-0.06,1.92,0,2.87c0.07,1.09-0.29,1.89-1.3,2.36C29.74,60,25.49,60,21.24,60z"/>
	<path class="st0" d="M10.71,60c0-11.03,0-22.06,0-33.1c0-1.54,0.63-2.18,2.15-2.18c1.6,0,3.19,0,4.86,0c0,11.78,0,23.53,0,35.27
		C15.39,60,13.05,60,10.71,60z"/>
	<path class="st0" d="M1.35,60c-1.01-0.47-1.31-1.27-1.3-2.36c0.04-5.58,0.02-11.16,0.02-16.75c0-1.45,0.66-2.11,2.1-2.11
		c1.61,0,3.23,0,4.91,0c0,7.1,0,14.15,0,21.21C5.17,60,3.26,60,1.35,60z"/>
</g>
</svg>
