<?xml version="1.0" encoding="utf-8"?>
<!-- Generator: Adobe Illustrator 27.0.1, SVG Export Plug-In . SVG Version: 6.00 Build 0)  -->
<svg version="1.1" id="Layer_1" xmlns="http://www.w3.org/2000/svg" xmlns:xlink="http://www.w3.org/1999/xlink" x="0px" y="0px"
	 viewBox="0 0 60 60" style="enable-background:new 0 0 60 60;" xml:space="preserve">
<style type="text/css">
	.st0{fill:#0029A6;}
</style>
<g>
	<path class="st0" d="M45.62,0.16c1.39,0.48,1.97,1.47,1.87,2.91c-0.04,0.56-0.01,1.12-0.01,1.75c0.98,0,1.93,0,2.87,0
		c2.88,0.01,5.29,1.07,7.2,3.24c1.44,1.63,2.24,3.56,2.26,5.73c0.05,4.54,0.03,9.09,0.02,13.64c0,1.34-1.04,2.34-2.33,2.34
		c-1.31,0-2.32-1.02-2.32-2.4c-0.01-4.31,0-8.62-0.01-12.94c0-2-0.82-3.54-2.64-4.44c-0.52-0.26-1.14-0.42-1.72-0.46
		c-1.08-0.07-2.17-0.02-3.33-0.02c0,0.7,0,1.39,0,2.09c-0.01,1.52-0.98,2.57-2.36,2.55c-1.35-0.01-2.29-1.05-2.31-2.54
		c0-0.68,0-1.36,0-2.07c-3.53,0-7.04,0-10.61,0c0,0.69,0,1.39,0,2.08c-0.01,1.49-0.96,2.53-2.31,2.54
		c-1.37,0.01-2.34-1.04-2.35-2.56c0-0.68,0-1.35,0-2.07c-3.5,0-6.97,0-10.49,0c0,0.71,0,1.4,0,2.1c-0.01,1.48-0.97,2.52-2.32,2.52
		c-1.35,0-2.32-1.04-2.34-2.51c-0.01-0.69,0-1.39,0-2.2c-1.36,0.06-2.7-0.02-3.98,0.22c-2.14,0.4-3.55,2.3-3.59,4.56
		c-0.02,1.05,0,2.1,0,3.15c0,10.94,0,21.87,0,32.81c0,2.02,0.77,3.62,2.63,4.49c0.73,0.34,1.6,0.5,2.41,0.5
		c5.73,0.04,11.46,0.03,17.19,0.02c0.78,0,1.47,0.18,1.99,0.78c0.61,0.7,0.78,1.52,0.44,2.39c-0.34,0.87-1.01,1.35-1.93,1.48
		c-0.15,0.02-0.31,0.02-0.47,0.02c-5.85,0-11.69,0.02-17.54,0c-4.1-0.01-7.54-2.48-8.88-6.32c-0.22-0.63-0.34-1.3-0.51-1.95
		c0-12.82,0-25.65,0-38.47c0.04-0.11,0.09-0.21,0.11-0.32c0.46-2.85,1.92-5.03,4.35-6.57c1.73-1.1,3.65-1.46,5.67-1.39
		c0.69,0.02,1.38,0,2.11,0c0-0.64,0.03-1.2-0.01-1.76c-0.1-1.44,0.48-2.43,1.87-2.91c0.31,0,0.62,0,0.93,0
		c1.39,0.47,1.97,1.46,1.87,2.9c-0.04,0.57-0.01,1.15-0.01,1.72c3.54,0,7,0,10.49,0c0-0.6,0.03-1.16-0.01-1.72
		c-0.1-1.44,0.48-2.43,1.87-2.9c0.31,0,0.62,0,0.93,0c1.39,0.47,1.97,1.46,1.87,2.9c-0.04,0.57-0.01,1.15-0.01,1.72
		c3.58,0,7.07,0,10.61,0c0-0.6,0.03-1.16-0.01-1.72c-0.1-1.44,0.48-2.43,1.87-2.9C45,0.16,45.31,0.16,45.62,0.16z"/>
	<path class="st0" d="M45.76,59.84c-7.74,0.02-14.09-6.3-14.13-14.07c-0.04-7.75,6.35-14.15,14.11-14.14
		c7.75,0.01,14.09,6.35,14.1,14.1C59.84,53.47,53.51,59.82,45.76,59.84z M45.77,36.29c-5.19-0.03-9.46,4.22-9.48,9.42
		c-0.02,5.17,4.19,9.42,9.37,9.46c5.19,0.04,9.47-4.19,9.51-9.39C55.21,40.6,50.97,36.32,45.77,36.29z"/>
	<path class="st0" d="M17.05,24.61c0.01,1.28-1.04,2.35-2.32,2.35c-1.28,0.01-2.34-1.05-2.34-2.33c0-1.26,1.03-2.3,2.29-2.32
		C15.97,22.29,17.04,23.33,17.05,24.61z"/>
	<path class="st0" d="M24.9,22.31c1.28,0.02,2.32,1.09,2.3,2.37c-0.03,1.28-1.11,2.31-2.39,2.28c-1.26-0.03-2.28-1.09-2.27-2.34
		C22.55,23.34,23.62,22.29,24.9,22.31z"/>
	<path class="st0" d="M35.03,22.31c1.28,0.01,2.33,1.08,2.31,2.36c-0.02,1.28-1.09,2.32-2.38,2.29c-1.26-0.03-2.28-1.07-2.28-2.33
		C32.68,23.35,33.75,22.3,35.03,22.31z"/>
	<path class="st0" d="M45.15,26.96c-1.28,0-2.33-1.06-2.32-2.35c0.01-1.28,1.08-2.33,2.36-2.31c1.26,0.02,2.29,1.06,2.29,2.32
		C47.48,25.91,46.43,26.96,45.15,26.96z"/>
	<path class="st0" d="M17.05,34.78c0,1.28-1.06,2.34-2.34,2.33c-1.28-0.01-2.33-1.07-2.31-2.36c0.02-1.26,1.05-2.29,2.31-2.3
		C15.99,32.44,17.05,33.49,17.05,34.78z"/>
	<path class="st0" d="M24.85,37.1c-1.28-0.01-2.33-1.08-2.31-2.36c0.02-1.28,1.09-2.32,2.37-2.3c1.26,0.02,2.28,1.07,2.28,2.33
		C27.19,36.06,26.13,37.11,24.85,37.1z"/>
	<path class="st0" d="M17.05,44.92c0,1.28-1.06,2.34-2.34,2.33c-1.28-0.01-2.33-1.07-2.32-2.35c0.01-1.26,1.05-2.29,2.31-2.3
		C15.99,42.58,17.05,43.63,17.05,44.92z"/>
	<path class="st0" d="M27.19,44.94c-0.01,1.28-1.08,2.33-2.36,2.31c-1.28-0.02-2.32-1.1-2.29-2.38c0.03-1.26,1.07-2.28,2.33-2.28
		C26.15,42.59,27.21,43.66,27.19,44.94z"/>
	<path class="st0" d="M48.06,43.41c0.41,0,0.76-0.01,1.1,0c1.3,0.06,2.28,1.07,2.28,2.33c0,1.26-0.98,2.28-2.28,2.32
		c-1.16,0.03-2.33,0.03-3.49,0c-1.27-0.04-2.23-1-2.26-2.28c-0.03-1.63-0.03-3.26,0-4.89c0.03-1.29,1.08-2.27,2.34-2.26
		c1.24,0.01,2.25,0.98,2.3,2.24C48.09,41.68,48.06,42.5,48.06,43.41z"/>
</g>
</svg>
