<svg width="32" height="60" viewBox="0 0 32 60" fill="none" xmlns="http://www.w3.org/2000/svg">
<path d="M19.3157 0C19.3263 1.87295 19.3583 3.75137 19.337 5.62432C19.337 6.12122 19.4648 6.28504 19.9549 6.3451C23.2578 6.76556 26.3901 7.73207 29.2667 9.49035C29.3946 9.5668 29.5171 9.65963 29.6876 9.7743C28.2866 12.0022 26.8962 14.2082 25.4845 16.447C23.9183 15.4805 22.2616 14.8744 20.5196 14.5086C17.3713 13.8424 14.2656 13.9297 11.2504 15.1474C9.75884 15.7481 8.48566 16.6764 8.19266 18.4183C7.81444 20.668 8.57089 22.1041 10.1317 23.1034C11.7459 24.1354 13.5464 24.7142 15.3363 25.3313C17.8454 26.194 20.3811 26.9749 22.8422 27.9523C25.4898 29.0007 27.8018 30.6007 29.5384 32.9705C30.8915 34.8107 31.6267 36.9021 31.8877 39.1682C32.1647 41.62 31.9569 44.0007 30.8649 46.2505C29.4532 49.1609 27.1519 51.083 24.2752 52.2679C22.8902 52.8413 21.4092 53.1908 19.9496 53.5348C19.4222 53.6604 19.337 53.8679 19.3423 54.3375C19.3636 56.2104 19.353 58.0888 19.353 60H11.5807V53.5238C7.13789 52.5683 3.22779 50.6571 0.00488281 47.277C1.89068 45.4478 3.75517 43.6403 5.58238 41.8657C6.4507 42.5155 7.23378 43.2035 8.11276 43.7386C11.863 46.0211 15.8744 46.4634 20.0668 45.3713C20.5622 45.2403 21.047 45.0491 21.5105 44.8307C24.0355 43.6349 24.8079 41.6964 23.8597 38.8296C23.3217 37.1969 22.0165 36.2359 20.5303 35.6516C17.936 34.6414 15.299 33.7514 12.6674 32.8449C10.3182 32.0313 8.00622 31.1685 5.89135 29.7925C-0.213529 25.8227 -0.975307 17.9924 1.92265 13.1052C3.43022 10.5661 5.63032 8.8897 8.26192 7.77576C9.18884 7.3826 10.1797 7.13688 11.1279 6.79833C11.2984 6.73826 11.5434 6.53076 11.5487 6.38879C11.5647 4.25919 11.5487 2.1296 11.5328 0C14.1324 0 16.7214 0 19.3157 0Z" fill="#0029A6"/>
</svg>
