<?xml version="1.0" encoding="utf-8"?>
<!-- Generator: Adobe Illustrator 27.0.1, SVG Export Plug-In . SVG Version: 6.00 Build 0)  -->
<svg version="1.1" id="Layer_1" xmlns="http://www.w3.org/2000/svg" xmlns:xlink="http://www.w3.org/1999/xlink" x="0px" y="0px"
	 viewBox="0 0 51.25 60" style="enable-background:new 0 0 51.25 60;" xml:space="preserve">
<style type="text/css">
	.st0{fill:#0029A6;}
</style>
<g>
	<path class="st0" d="M28.04,60c-4.58-1.25-9.17-2.5-13.75-3.75c-1.46-0.4-2.86-0.2-4.19,0.53c-0.34,0.18-0.68,0.36-1.09,0.58
		c-0.02-0.2-0.04-0.33-0.04-0.45c0.09-3.24,0.2-6.48,0.27-9.72c0.01-0.41,0.15-0.63,0.5-0.82c3.7-2.1,7.46-2.19,11.23-0.25
		c1.68,0.87,3.42,1.37,5.32,1.38c2.26,0.02,4.53,0.12,6.79,0.19c1.99,0.06,3.7,1.37,4.26,3.27c0.04,0.15,0.06,0.3,0.11,0.52
		c-0.25,0-0.46,0-0.66,0C33.4,51.39,30,51.3,26.6,51.21c-0.44-0.01-0.82,0.06-1.05,0.48c-0.33,0.62,0.11,1.26,0.9,1.29
		c2.48,0.08,4.96,0.15,7.44,0.22c1.42,0.04,2.85,0.09,4.27,0.12c0.85,0.02,1.25-0.32,1.12-1.16c-0.15-0.94,0.25-1.29,1.04-1.64
		c2.4-1.07,4.77-2.24,7.15-3.35c1.36-0.64,2.7-0.42,3.77,0.62c-0.18,0.12-0.34,0.24-0.51,0.35c-5.37,3.48-10.75,6.95-16.12,10.43
		c-1.16,0.75-2.45,1.09-3.78,1.32c-0.19,0.03-0.38,0.08-0.57,0.12C29.53,60,28.79,60,28.04,60z"/>
	<path class="st0" d="M26.88,15.33c7.11,0,12.87,5.77,12.85,12.85c-0.02,7.1-5.78,12.84-12.89,12.83
		c-7.07-0.01-12.81-5.76-12.82-12.83C14.02,21.1,19.79,15.33,26.88,15.33z M25.81,35.53c0,0.21,0,0.4,0,0.6
		c0,0.96,0.26,1.37,0.87,1.38c0.62,0.01,0.93-0.41,0.89-1.35c-0.02-0.47,0.16-0.62,0.58-0.75c2.28-0.73,3.47-3.16,2.69-5.4
		c-0.59-1.67-2.08-2.72-4-2.82c-1.49-0.07-2.59-1.35-2.37-2.75c0.2-1.25,1.19-2.11,2.43-2.1c1.25,0.01,2.23,0.9,2.42,2.19
		c0.04,0.25,0.03,0.59,0.19,0.71c0.26,0.2,0.65,0.37,0.96,0.33c0.49-0.07,0.64-0.51,0.62-0.99c-0.04-1.73-1.26-3.31-2.95-3.83
		c-0.18-0.06-0.36-0.11-0.55-0.17c0-0.35,0.01-0.67,0-0.98c-0.03-0.54-0.39-0.89-0.89-0.89c-0.5,0.01-0.84,0.35-0.87,0.9
		c-0.01,0.16-0.02,0.31,0,0.47c0.04,0.39-0.06,0.61-0.49,0.77c-1.77,0.66-2.79,2.32-2.68,4.24c0.1,1.76,1.4,3.31,3.19,3.75
		c0.49,0.12,1.01,0.11,1.5,0.2c1.13,0.2,1.94,1.16,1.98,2.29c0.04,1.13-0.71,2.14-1.82,2.43c-1.54,0.41-2.88-0.6-3.08-2.32
		c-0.07-0.59-0.42-0.93-0.93-0.91c-0.51,0.02-0.92,0.42-0.83,0.99c0.12,0.72,0.3,1.46,0.63,2.1C23.8,34.62,24.73,35.19,25.81,35.53z
		"/>
	<path class="st0" d="M1.28,43.44c2.14,0,4.17,0,6.29,0C7.42,48.81,7.28,54.09,7.14,59.3c-2.12,0-4.18,0-6.3,0
		C0.99,53.92,1.13,48.67,1.28,43.44z"/>
	<path class="st0" d="M25.93,5.74c0-1.54,0-3.08,0-4.63c0-0.71,0.35-1.13,0.91-1.11c0.54,0.01,0.86,0.41,0.86,1.1
		c0,3.08,0,6.17,0,9.25c0,0.68-0.33,1.09-0.87,1.09c-0.54,0-0.89-0.41-0.89-1.08C25.93,8.82,25.93,7.28,25.93,5.74z"/>
	<path class="st0" d="M18.31,8.26c0-0.72-0.01-1.44,0-2.16c0.01-0.62,0.36-1.01,0.89-1.01c0.53,0,0.88,0.39,0.88,1.02
		c0.01,1.44,0.01,2.88,0,4.32c0,0.62-0.37,1.02-0.89,1.02c-0.52,0-0.87-0.4-0.88-1.02C18.3,9.7,18.31,8.98,18.31,8.26z"/>
	<path class="st0" d="M35.34,8.3c0,0.72,0.01,1.45,0,2.17c-0.01,0.59-0.36,0.97-0.87,0.97c-0.5,0-0.89-0.38-0.9-0.96
		c-0.02-1.48-0.02-2.97,0-4.45c0.01-0.57,0.4-0.95,0.91-0.94c0.51,0.01,0.85,0.38,0.86,0.98C35.35,6.82,35.34,7.56,35.34,8.3z"/>
</g>
</svg>
